<svg width="110" height="110" viewBox="0 0 110 110" fill="none" xmlns="http://www.w3.org/2000/svg">
<path d="M47.5233 21.4994C49.9881 14.4117 60.0119 14.4117 62.4767 21.4994C64.032 25.9717 69.1395 28.0873 73.4017 26.0247C80.1564 22.7558 87.2442 29.8436 83.9753 36.5983C81.9127 40.8605 84.0283 45.968 88.5006 47.5233C95.5883 49.9881 95.5883 60.0119 88.5006 62.4767C84.0283 64.032 81.9127 69.1395 83.9753 73.4017C87.2442 80.1564 80.1564 87.2442 73.4017 83.9753C69.1395 81.9127 64.032 84.0283 62.4767 88.5006C60.0119 95.5883 49.9881 95.5883 47.5233 88.5006C45.968 84.0283 40.8605 81.9127 36.5983 83.9753C29.8436 87.2442 22.7558 80.1564 26.0247 73.4017C28.0873 69.1395 25.9717 64.032 21.4994 62.4767C14.4117 60.0119 14.4117 49.9881 21.4994 47.5233C25.9717 45.968 28.0873 40.8605 26.0247 36.5983C22.7558 29.8436 29.8436 22.7558 36.5983 26.0247C40.8605 28.0873 45.968 25.9717 47.5233 21.4994Z" fill="#00A1F1"/>
<path fill-rule="evenodd" clip-rule="evenodd" d="M75.0859 40.8784C75.6483 41.441 75.9643 42.204 75.9643 42.9995C75.9643 43.795 75.6483 44.558 75.0859 45.1206L51.0849 69.1216C50.5223 69.684 49.7593 70 48.9638 70C48.1682 70 47.4053 69.684 46.8427 69.1216L34.8422 57.1211C34.2957 56.5553 33.9933 55.7974 34.0001 55.0108C34.0069 54.2242 34.3225 53.4717 34.8787 52.9155C35.435 52.3592 36.1874 52.0437 36.9741 52.0369C37.7607 52.03 38.5185 52.3324 39.0844 52.8789L48.9638 62.7583L70.8437 40.8784C71.4063 40.316 72.1693 40 72.9648 40C73.7603 40 74.5233 40.316 75.0859 40.8784Z" fill="white"/>
</svg>
