<svg width="81" height="81" viewBox="0 0 81 81" fill="none" xmlns="http://www.w3.org/2000/svg">
<g clip-path="url(#clip0_1_39)">
<path d="M20.25 10.125C20.25 12.8103 19.1833 15.3856 17.2845 17.2845C15.3857 19.1833 12.8103 20.25 10.125 20.25C7.43968 20.25 4.86435 19.1833 2.96554 17.2845C1.06674 15.3856 0 12.8103 0 10.125C0 7.43968 1.06674 4.86435 2.96554 2.96555C4.86435 1.06674 7.43968 0 10.125 0C12.8103 0 15.3857 1.06674 17.2845 2.96555C19.1833 4.86435 20.25 7.43968 20.25 10.125ZM50.625 10.125C50.625 12.8103 49.5583 15.3856 47.6595 17.2845C45.7606 19.1833 43.1853 20.25 40.5 20.25C37.8147 20.25 35.2394 19.1833 33.3405 17.2845C31.4417 15.3856 30.375 12.8103 30.375 10.125C30.375 7.43968 31.4417 4.86435 33.3405 2.96555C35.2394 1.06674 37.8147 0 40.5 0C43.1853 0 45.7606 1.06674 47.6595 2.96555C49.5583 4.86435 50.625 7.43968 50.625 10.125ZM70.875 20.25C73.5603 20.25 76.1357 19.1833 78.0345 17.2845C79.9333 15.3856 81 12.8103 81 10.125C81 7.43968 79.9333 4.86435 78.0345 2.96555C76.1357 1.06674 73.5603 0 70.875 0C68.1897 0 65.6143 1.06674 63.7155 2.96555C61.8167 4.86435 60.75 7.43968 60.75 10.125C60.75 12.8103 61.8167 15.3856 63.7155 17.2845C65.6143 19.1833 68.1897 20.25 70.875 20.25Z" fill="#A4AABA"/>
<path d="M20.25 70.4071C20.25 73.0924 19.1833 75.6678 17.2845 77.5666C15.3857 79.4654 12.8103 80.5321 10.125 80.5321C7.43968 80.5321 4.86435 79.4654 2.96554 77.5666C1.06674 75.6678 0 73.0924 0 70.4071C0 67.7218 1.06674 65.1465 2.96554 63.2477C4.86435 61.3488 7.43968 60.2821 10.125 60.2821C12.8103 60.2821 15.3857 61.3488 17.2845 63.2477C19.1833 65.1465 20.25 67.7218 20.25 70.4071ZM50.625 70.4071C50.625 73.0924 49.5583 75.6678 47.6595 77.5666C45.7606 79.4654 43.1853 80.5321 40.5 80.5321C37.8147 80.5321 35.2394 79.4654 33.3405 77.5666C31.4417 75.6678 30.375 73.0924 30.375 70.4071C30.375 67.7218 31.4417 65.1465 33.3405 63.2477C35.2394 61.3488 37.8147 60.2821 40.5 60.2821C43.1853 60.2821 45.7606 61.3488 47.6595 63.2477C49.5583 65.1465 50.625 67.7218 50.625 70.4071ZM70.875 80.5321C73.5603 80.5321 76.1357 79.4654 78.0345 77.5666C79.9333 75.6678 81 73.0924 81 70.4071C81 67.7218 79.9333 65.1465 78.0345 63.2477C76.1357 61.3488 73.5603 60.2821 70.875 60.2821C68.1897 60.2821 65.6143 61.3488 63.7155 63.2477C61.8167 65.1465 60.75 67.7218 60.75 70.4071C60.75 73.0924 61.8167 75.6678 63.7155 77.5666C65.6143 79.4654 68.1897 80.5321 70.875 80.5321Z" fill="#A4AABA"/>
<path d="M20.25 40.0321C20.25 42.7174 19.1833 45.2927 17.2845 47.1915C15.3857 49.0903 12.8103 50.1571 10.125 50.1571C7.43968 50.1571 4.86435 49.0903 2.96554 47.1915C1.06674 45.2927 0 42.7174 0 40.0321C0 37.3468 1.06674 34.7714 2.96554 32.8726C4.86435 30.9738 7.43968 29.9071 10.125 29.9071C12.8103 29.9071 15.3857 30.9738 17.2845 32.8726C19.1833 34.7714 20.25 37.3468 20.25 40.0321ZM50.625 40.0321C50.625 42.7174 49.5583 45.2927 47.6595 47.1915C45.7606 49.0903 43.1853 50.1571 40.5 50.1571C37.8147 50.1571 35.2394 49.0903 33.3405 47.1915C31.4417 45.2927 30.375 42.7174 30.375 40.0321C30.375 37.3468 31.4417 34.7714 33.3405 32.8726C35.2394 30.9738 37.8147 29.9071 40.5 29.9071C43.1853 29.9071 45.7606 30.9738 47.6595 32.8726C49.5583 34.7714 50.625 37.3468 50.625 40.0321ZM70.875 50.1571C73.5603 50.1571 76.1357 49.0903 78.0345 47.1915C79.9333 45.2927 81 42.7174 81 40.0321C81 37.3468 79.9333 34.7714 78.0345 32.8726C76.1357 30.9738 73.5603 29.9071 70.875 29.9071C68.1897 29.9071 65.6143 30.9738 63.7155 32.8726C61.8167 34.7714 60.75 37.3468 60.75 40.0321C60.75 42.7174 61.8167 45.2927 63.7155 47.1915C65.6143 49.0903 68.1897 50.1571 70.875 50.1571Z" fill="#A4AABA"/>
</g>
<defs>
<clipPath id="clip0_1_39">
<rect width="81" height="81" fill="white"/>
</clipPath>
</defs>
</svg>
