<svg width="89" height="56" viewBox="0 0 89 56" fill="none" xmlns="http://www.w3.org/2000/svg">
<path d="M56.4858 5.88846H32.444V49.1246H56.4858V5.88846Z" fill="#FF5F00"/>
<path d="M33.9702 27.5064C33.9702 19.1036 37.8627 11.0827 44.4265 5.8883C32.5201 -3.50753 15.271 -1.44503 5.88325 10.548C-3.50452 22.4647 -1.44379 39.7286 10.539 49.1244C20.5373 56.9925 34.5045 56.9925 44.5028 49.1244C37.8627 43.93 33.9702 35.9091 33.9702 27.5064Z" fill="#EB001B"/>
<path d="M88.9232 27.5065C88.9232 42.7079 76.6352 55.0065 61.4468 55.0065C55.2646 55.0065 49.3114 52.944 44.5031 49.1246C56.4095 39.7287 58.4702 22.4648 49.0825 10.4718C47.7086 8.79123 46.1822 7.18707 44.5031 5.88845C56.4095 -3.50738 73.7349 -1.44488 83.0463 10.5482C86.8625 15.3607 88.9232 21.319 88.9232 27.5065Z" fill="#F79E1B"/>
<path d="M86.3282 44.5412V43.6246H86.7098V43.4718H85.7939V43.6246H86.1756V44.5412H86.3282ZM88.0836 44.5412V43.4718H87.7784L87.4731 44.2357L87.1678 43.4718H86.8625V44.5412H87.0914V43.701L87.3967 44.3885H87.6257L87.931 43.701V44.5412H88.0836Z" fill="#F79E1B"/>
</svg>
