<svg width="70" height="70" viewBox="0 0 70 70" fill="none" xmlns="http://www.w3.org/2000/svg">
<path d="M47.551 12.551C48.1967 11.8824 48.9691 11.3492 49.8232 10.9823C50.6772 10.6154 51.5957 10.4223 52.5252 10.4143C53.4546 10.4062 54.3764 10.5833 55.2367 10.9353C56.097 11.2872 56.8785 11.807 57.5358 12.4643C58.193 13.1215 58.7128 13.9031 59.0647 14.7633C59.4167 15.6236 59.5938 16.5454 59.5858 17.4748C59.5777 18.4043 59.3846 19.3228 59.0177 20.1769C58.6508 21.0309 58.1176 21.8033 57.449 22.449L54.6735 25.2245L44.7755 15.3265L47.551 12.551ZM39.8265 20.2755L10.5 49.602V59.5H20.398L49.728 30.1735L39.8265 20.2755Z" fill="#025EFF"/>
</svg>
